<svg xmlns="http://www.w3.org/2000/svg" width="20" height="20" viewBox="0 0 20 20">
    <defs>
        <style>
            .cls-1{fill:#c2c2c2}.cls-2{fill:#fff}
        </style>
    </defs>
    <g id="btn_increase" transform="translate(-272 -400)">
        <circle id="Ellipse_36" cx="10" cy="10" r="10" class="cls-1" data-name="Ellipse 36" transform="translate(272 400)"/>
        <path id="Union_34" d="M-8076-2206v-4h-4a1 1 0 0 1-1-1 1 1 0 0 1 1-1h4v-4a1 1 0 0 1 1-1 1 1 0 0 1 1 1v4h4a1 1 0 0 1 1 1 1 1 0 0 1-1 1h-4v4a1 1 0 0 1-1 1 1 1 0 0 1-1-1z" class="cls-2" data-name="Union 34" transform="translate(8357 2621)"/>
    </g>
</svg>
