<svg xmlns="http://www.w3.org/2000/svg" width="48" height="48" viewBox="0 0 48 48">
    <defs>
        <style>
            .cls-1{fill:#fcbe12}.cls-2{fill:#995628}.cls-3{fill:#b06f3b}.cls-4{fill:#cfd6e3}.cls-5{fill:#7c4913}.cls-6{fill:#040100}.cls-7{fill:#9b806f}.cls-8{fill:#ad9486}.cls-9{fill:#60432f}
        </style>
    </defs>
    <g id="icon_horse" transform="translate(-24 -228)">
        <path id="Path_319" d="M138.638 347.8a24.006 24.006 0 0 1-14.96 22.239c-2.79 1.136-5.841 1.069-9.039 1.069-3.232 0-6.314.054-9.127-1.1a24 24 0 1 1 33.126-22.2z" class="cls-1" data-name="Path 319" transform="translate(-66.638 -95.801)"/>
        <path id="Path_320" d="M115.835 360.2c-5.013 0-9.078 5.638-9.078 12.592v.007a24.015 24.015 0 0 0 18.156.034v-.042c.001-6.95-4.063-12.591-9.078-12.591z" class="cls-2" data-name="Path 320" transform="translate(-67.878 -98.601)"/>
        <g id="Group_160" data-name="Group 160" transform="translate(33.263 229.782)">
            <g id="Group_159" data-name="Group 159">
                <path id="Path_321" d="M127.534 344.3c0-5.635-4.95-10.2-11.057-10.2l-2.058 9.948 2.058 10.46c6.107-.008 11.057-4.575 11.057-10.208z" class="cls-2" data-name="Path 321" transform="translate(-101.73 -326.374)"/>
                <path id="Path_322" d="M132.561 335.243s-5.586 1.85-7.166 4.841a3.573 3.573 0 0 0 1.252 4.759s5.81-3.27 5.914-9.6z" class="cls-2" data-name="Path 322" transform="translate(-102.538 -326.463)"/>
                <path id="Path_323" d="M115.728 334.093c-6.106 0-11.056 4.568-11.056 10.2s4.95 10.2 11.056 10.2z" class="cls-3" data-name="Path 323" transform="translate(-100.981 -326.374)"/>
                <path id="Path_324" d="M117.465 345.017c0 4.152-.42 7.518-.938 7.518s-.937-3.366-.937-7.518-1.68-7.517.937-7.517c2.433 0 .938 3.365.938 7.517z" class="cls-4" data-name="Path 324" transform="translate(-101.78 -326.636)"/>
                <path id="Path_325" d="M115.625 338.018s4.623-2.151 6.705 1.458 4.166 5.346 8.609 3.471c0 0-3.021-1.875-3.333-5.1a1.208 1.208 0 0 0 1.563.243s-1.945-.279-1.563-3.367-2.777-8.921-9.37-6.282a6.6 6.6 0 0 1 2.082-2.707s-3.089.8-4.026 2.707l.1-2.361s-1.422 4.305-5.587 4.305-9.076 6.494-6.03 15.048c0 0 .936-7.342 5.358-8.106s.949 4.3 6.919 2.776c.003-.003-1.096-.158-1.427-2.085z" class="cls-5" data-name="Path 325" transform="translate(-100.916 -325.731)"/>
                <path id="Path_326" d="M114.8 353.3c0 3.247-2.3 5.876-5.13 5.876s-5.129-2.629-5.129-5.876 2.3-5.879 5.129-5.879 5.13 2.632 5.13 5.879z" class="cls-3" data-name="Path 326" transform="translate(-100.971 -327.399)"/>
                <path id="Path_327" d="M128 353.3c0 3.247-2.3 5.876-5.129 5.876s-5.129-2.629-5.129-5.876 2.3-5.879 5.129-5.879S128 350.053 128 353.3z" class="cls-2" data-name="Path 327" transform="translate(-101.986 -327.399)"/>
                <path id="Path_328" d="M100.673 334.093s5.586 1.85 7.166 4.84a3.575 3.575 0 0 1-1.252 4.761s-5.81-3.271-5.914-9.601z" class="cls-3" data-name="Path 328" transform="translate(-100.673 -326.374)"/>
                <path id="Path_329" d="M123.152 347a.907.907 0 1 1-.907-.908.907.907 0 0 1 .907.908z" class="cls-6" data-name="Path 329" transform="translate(-102.263 -327.297)"/>
                <path id="Path_330" d="M112.912 347a.907.907 0 1 1-.906-.908.906.906 0 0 1 .906.908z" class="cls-6" data-name="Path 330" transform="translate(-101.475 -327.297)"/>
            </g>
        </g>
        <g id="Group_165" data-name="Group 165" transform="translate(38.828 255.959)">
            <path id="Path_331" d="M116.515 354.09l-.661 2.6-.922 3.619 1.583 6.56c5.965.266 9.4.942 9.17-5.293-.149-4.13-4.105-7.484-9.17-7.486z" class="cls-7" data-name="Path 331" transform="translate(-107.335 -354.09)"/>
            <g id="Group_161" data-name="Group 161">
                <path id="Path_332" d="M115.881 354.09c-5.066 0-9.365 3.357-9.173 7.487.33 7.068 3.907 5.058 9.173 5.293v-12.78z" class="cls-8" data-name="Path 332" transform="translate(-106.702 -354.09)"/>
            </g>
            <g id="Group_162" data-name="Group 162" transform="translate(4.307 10.031)">
                <path id="Path_333" d="M114.767 366.825a4.229 4.229 0 0 1-3.372-1.62.16.16 0 0 1 .265-.179 3.983 3.983 0 0 0 4.512 1.27.16.16 0 0 1 .088.307 5.4 5.4 0 0 1-1.493.222z" class="cls-9" data-name="Path 333" transform="translate(-111.368 -364.957)"/>
            </g>
            <g id="Group_163" data-name="Group 163" transform="translate(9.044 10.031)">
                <path id="Path_334" d="M118.109 366.825a4.226 4.226 0 0 0 3.371-1.62.158.158 0 0 0-.042-.221.16.16 0 0 0-.222.042 3.981 3.981 0 0 1-4.511 1.27.161.161 0 0 0-.2.112.159.159 0 0 0 .11.2 5.4 5.4 0 0 0 1.494.217z" class="cls-9" data-name="Path 334" transform="translate(-116.5 -364.957)"/>
            </g>
            <path id="Path_335" d="M111.313 356.464a2.195 2.195 0 1 1-2.168-1.852 2.03 2.03 0 0 1 2.168 1.852z" class="cls-8" data-name="Path 335" transform="translate(-106.723 -354.13)"/>
            <g id="Group_164" data-name="Group 164" transform="translate(13.252 .482)">
                <path id="Path_336" d="M125.4 356.464a2.2 2.2 0 1 1-2.169-1.852 2.031 2.031 0 0 1 2.169 1.852z" class="cls-7" data-name="Path 336" transform="translate(-121.059 -354.612)"/>
            </g>
            <path id="Path_337" d="M108.46 357.456s1.255-1 .548-1.255-.548 1.255-.548 1.255z" class="cls-9" data-name="Path 337" transform="translate(-106.836 -354.25)"/>
            <path id="Path_338" d="M124.61 357.456s-1.254-1-.549-1.255.549 1.255.549 1.255z" class="cls-9" data-name="Path 338" transform="translate(-108.021 -354.25)"/>
        </g>
    </g>
</svg>
