<svg xmlns="http://www.w3.org/2000/svg" width="48" height="48" viewBox="0 0 48 48">
    <defs>
        <style>
            .cls-1{fill:#7ddcf9}.cls-2{fill:#588e03}.cls-3{fill:#e0be2d}.cls-4{fill:#f9a605}.cls-5{fill:#d18807}.cls-6{fill:#64ab03}.cls-7{fill:#f7f6bf}.cls-8{fill:#f9d955}.cls-9{fill:#cead21}.cls-10{fill:#be1e2d}.cls-11{fill:#8b5e3c}
        </style>
    </defs>
    <g id="icon_dragon" transform="translate(-24 -228)">
        <path id="Path_279" d="M302.962 215.425a24.01 24.01 0 0 1-18.973 23.475c-1.621.345-3.029-.691-4.753-.691-1.8 0-3.833 1.02-5.521.643a24 24 0 1 1 29.247-23.425z" class="cls-1" data-name="Path 279" transform="translate(-230.962 36.575)"/>
        <path id="Path_280" d="M280.408 234.412c-2.839 0-5.142 3.292-5.142 7.35 0 .132.008.259.014.389q.737.165 1.491.284c1.223.195 2.574-.417 3.851-.417 1.185 0 2.253.627 3.393.46q.768-.114 1.52-.273c.006-.147.016-.293.016-.442 0-4.063-2.302-7.351-5.143-7.351z" class="cls-2" data-name="Path 280" transform="translate(-232.524 33.268)"/>
        <path id="Path_281" d="M280.517 235.166c-2.13 0-3.857 2.467-3.857 5.512a7.655 7.655 0 0 0 .219 1.818 24.063 24.063 0 0 0 7.265.035 7.6 7.6 0 0 0 .229-1.854c-.001-3.044-1.727-5.511-3.856-5.511z" class="cls-3" data-name="Path 281" transform="translate(-232.631 33.21)"/>
        <g id="Group_155" data-name="Group 155" transform="translate(28.107 232.701)">
            <path id="Path_282" d="M269.956 209.879a4.707 4.707 0 0 0-3.282 3.524 7.361 7.361 0 0 1 1.938-1.235s-2.144 5.6-4.723 5.886a3.388 3.388 0 0 0 3.924-1.09 7.468 7.468 0 0 0-.726 3.6c.291 1.417-1.708 2.653-1.708 2.653a3.917 3.917 0 0 0 2.979-2.034s-1.6 2.688.437 4.324a2.63 2.63 0 0 1 .618 3.633s1.2-.4 1.635-2.4a2.821 2.821 0 0 0 2.77 1.234c1.735-.362 1.99-10.1 1.99-10.1l-1.2-8.538z" class="cls-4" data-name="Path 282" transform="translate(-259.755 -197.504)"/>
            <path id="Path_283" d="M290.729 209.879a4.706 4.706 0 0 1 3.282 3.524 7.333 7.333 0 0 0-1.938-1.235s2.143 5.6 4.723 5.886a3.389 3.389 0 0 1-3.925-1.09 7.486 7.486 0 0 1 .728 3.6c-.291 1.417 1.706 2.653 1.706 2.653a3.918 3.918 0 0 1-2.979-2.034s1.6 2.688-.435 4.324a2.629 2.629 0 0 0-.618 3.633s-1.2-.4-1.637-2.4a2.819 2.819 0 0 1-2.768 1.234c-1.736-.362-1.991-10.1-1.991-10.1l1.2-8.538z" class="cls-5" data-name="Path 283" transform="translate(-261.37 -197.504)"/>
            <path id="Path_284" d="M280.77 209.334l-2.3 8.276 2.3 9.553c5.413 0 9.8-3.991 9.8-8.915s-4.387-8.914-9.8-8.914z" class="cls-2" data-name="Path 284" transform="translate(-260.877 -197.504)"/>
            <path id="Path_285" d="M287.426 209.65s-5.577.187-6.666 3.61l-2.427-7.188 2.427-4.7s2.007.136 3.229-4.108c0 0 2.217 3.609 1.159 6.721 0 0 4.293-3.111 6.223.685s3.921 4.231 3.921 4.231-.747.684-3.051-.5z" class="cls-5" data-name="Path 285" transform="translate(-260.867 -196.576)"/>
            <path id="Path_286" d="M280.145 209.334c-5.413 0-9.8 3.991-9.8 8.914s4.388 8.915 9.8 8.915z" class="cls-6" data-name="Path 286" transform="translate(-260.252 -197.504)"/>
            <path id="Path_287" d="M273.086 209.65s5.577.187 6.666 3.61v-11.886s-2.193.5-3.228-4.108c0 0-2.218 3.609-1.159 6.721 0 0-4.294-3.111-6.223.685s-3.921 4.231-3.921 4.231.746.684 3.049-.5z" class="cls-4" data-name="Path 287" transform="translate(-259.858 -196.576)"/>
            <path id="Path_288" d="M273.846 201.866s-.777 5.641 1.215 7.168c0 0-.289.766-1.363.513 0 0-.39-3.081-2.288-3.334s-3.293-.443-2.786-1.614 2.916 1.91 2.121-.75c-.752-2.519-4.1-7.576-2.226-7.322s2.765 8.119 3.618 6.528.594-2 1.219-1.828a.6.6 0 0 1 .49.639z" class="cls-7" data-name="Path 288" transform="translate(-260.068 -196.518)"/>
            <path id="Path_289" d="M287.912 201.866s.777 5.641-1.215 7.168c0 0 .29.766 1.364.513 0 0 .389-3.081 2.288-3.334s3.293-.443 2.786-1.614-2.917 1.91-2.121-.75c.752-2.519 4.1-7.576 2.227-7.322s-2.765 8.119-3.619 6.528-.593-2-1.218-1.828a.6.6 0 0 0-.492.639z" class="cls-7" data-name="Path 289" transform="translate(-261.51 -196.518)"/>
            <path id="Path_290" d="M277.718 226.7a3.7 3.7 0 1 1-3.687-3.407 3.555 3.555 0 0 1 3.687 3.407z" class="cls-6" data-name="Path 290" transform="translate(-260.252 -198.577)"/>
            <path id="Path_291" d="M272.4 229.278s-.914 2.621-5.106 1.273-5.011-3.564-7.886-3a8.137 8.137 0 0 1 3.873 1.557c1.667 1.24 4.951 3.154 7.027 2.356a5.862 5.862 0 0 0 2.886-2.182z" class="cls-6" data-name="Path 291" transform="translate(-259.411 -198.898)"/>
            <path id="Path_292" d="M288.372 229.208s.914 2.621 5.106 1.273 5.01-3.564 7.886-3a8.127 8.127 0 0 0-3.874 1.557c-1.667 1.241-4.951 3.154-7.026 2.356a5.862 5.862 0 0 1-2.886-2.182z" class="cls-2" data-name="Path 292" transform="translate(-261.578 -198.893)"/>
            <path id="Path_293" d="M289.7 226.7a3.7 3.7 0 1 1-3.688-3.407 3.555 3.555 0 0 1 3.688 3.407z" class="cls-2" data-name="Path 293" transform="translate(-261.174 -198.577)"/>
            <g id="Group_152" data-name="Group 152" transform="translate(12.617 28.114)">
                <path id="Path_294" d="M280.858 226.975l-.524 2.061-.73 2.868 1.254 5.2c4.728.211 7.447.747 7.268-4.2-.117-3.27-3.253-5.928-7.268-5.929z" class="cls-3" data-name="Path 294" transform="translate(-273.581 -226.975)"/>
                <path id="Path_295" d="M280.356 226.975c-4.015 0-7.424 2.66-7.271 5.934.262 5.6 3.1 4.009 7.271 4.2v-10.13z" class="cls-8" data-name="Path 295" transform="translate(-273.08 -226.975)"/>
                <path id="Path_296" d="M276.735 228.857a1.74 1.74 0 1 1-1.719-1.469 1.608 1.608 0 0 1 1.719 1.469z" class="cls-8" data-name="Path 296" transform="translate(-273.096 -227.007)"/>
                <path id="Path_297" d="M287.9 228.857a1.74 1.74 0 1 1-1.72-1.469 1.609 1.609 0 0 1 1.72 1.469z" class="cls-3" data-name="Path 297" transform="translate(-273.955 -227.007)"/>
            </g>
            <path id="Path_298" d="M274.473 229.642s1-.794.436-1-.436 1-.436 1z" class="cls-3" data-name="Path 298" transform="translate(-260.569 -198.988)"/>
            <path id="Path_299" d="M287.274 229.642s-.994-.794-.435-1 .435 1 .435 1z" class="cls-9" data-name="Path 299" transform="translate(-261.508 -198.988)"/>
            <path id="Path_300" d="M285.625 221.529a.7.7 0 1 1-.7-.7.7.7 0 0 1 .7.7z" class="cls-10" data-name="Path 300" transform="translate(-261.32 -198.388)"/>
            <path id="Path_301" d="M277.442 221.529a.7.7 0 1 1-.7-.7.7.7 0 0 1 .7.7z" class="cls-10" data-name="Path 301" transform="translate(-260.69 -198.388)"/>
            <g id="Group_153" data-name="Group 153" transform="translate(16.031 36.065)">
                <path id="Path_302" d="M279.472 237.07a3.355 3.355 0 0 1-2.673-1.284.127.127 0 0 1 .211-.142 3.158 3.158 0 0 0 3.576 1.007.126.126 0 0 1 .157.087.127.127 0 0 1-.088.157 4.269 4.269 0 0 1-1.183.175z" class="cls-11" data-name="Path 302" transform="translate(-276.778 -235.588)"/>
            </g>
            <g id="Group_154" data-name="Group 154" transform="translate(19.787 36.065)">
                <path id="Path_303" d="M282.122 237.07a3.352 3.352 0 0 0 2.672-1.284.127.127 0 0 0-.21-.142 3.158 3.158 0 0 1-3.576 1.007.127.127 0 1 0-.07.244 4.28 4.28 0 0 0 1.184.175z" class="cls-11" data-name="Path 303" transform="translate(-280.847 -235.588)"/>
            </g>
        </g>
        <path id="Path_304" d="M276.154 239.3s4.968 1.44 8.421.125c0-.004-2.857 2.082-8.421-.125z" class="cls-2" data-name="Path 304" transform="translate(-232.592 32.893)"/>
        <path id="Path_305" d="M276.154 241.554s4.968 1.441 8.421.124c0 0-2.857 2.088-8.421-.124z" class="cls-2" data-name="Path 305" transform="translate(-232.592 32.719)"/>
    </g>
</svg>
