<svg xmlns="http://www.w3.org/2000/svg" width="30" height="30" viewBox="0 0 30 30">
    <defs>
        <style>
            .cls-1{fill:#fff}.cls-2{fill:none}.cls-3{clip-path:url(#clip-path)}.cls-4{clip-path:url(#clip-path-2)}
        </style>
        <clipPath id="clip-path">
            <path d="M0 0h30v30H0z" class="cls-2"/>
        </clipPath>
        <clipPath id="clip-path-2">
            <path id="Rectangle_1486" d="M0 0h30v30H0z" class="cls-1" data-name="Rectangle 1486"/>
        </clipPath>
    </defs>
    <g id="icon_management_withdraw" class="cls-3">
        <g id="icon_management_withdraw-2" class="cls-4" data-name="icon_management_withdraw">
            <g id="提款">
                <path id="Union_9" d="M16.608 29.987l-10.472-1.8H.879A.878.878 0 0 1 0 27.3v-7.027a.879.879 0 0 1 .879-.879h5l.661-.582a6.166 6.166 0 0 1 8.129 0c.31.232.508.582.994.582h2.852a2.634 2.634 0 0 1 2.124 1.076l3.134-2.07a4.478 4.478 0 0 1 6.064 1.125.879.879 0 0 1-.2 1.217l-12.359 9.087-.009.006a.877.877 0 0 1-.661.151zm-.07-1.8l11.247-8.257a2.716 2.716 0 0 0-3.044-.058l-3.6 2.372a2.639 2.639 0 0 1-2.627 2.423h-7.03a.879.879 0 1 1 0-1.757h7.031a.879.879 0 1 0 0-1.758h-2.852a3.092 3.092 0 0 1-2.155-1.021 4.4 4.4 0 0 0-5.806 0l-.911.8a.88.88 0 0 1-.58.219H1.758v5.273h4.481c.095.002.442.077 10.3 1.769zM7.09 7.969a7.91 7.91 0 1 1 7.91 7.91 7.949 7.949 0 0 1-7.91-7.91zm7.022-1.5a.88.88 0 0 0 .879.879 2.636 2.636 0 0 1 .888 5.119v1.591a6.186 6.186 0 0 0 0-12.236v2.164a2.642 2.642 0 0 1 1.749 2.482.879.879 0 1 1-1.758 0 .879.879 0 0 0-1.758 0zm-5.264 1.5a6.16 6.16 0 0 0 5.273 6.089v-1.585a2.641 2.641 0 0 1-1.767-2.489.879.879 0 0 1 1.758 0 .879.879 0 1 0 .879-.879 2.636 2.636 0 0 1-.87-5.125V1.821a6.2 6.2 0 0 0-5.273 6.148z" class="cls-1" data-name="Union 9"/>
            </g>
        </g>
    </g>
</svg>
