<svg xmlns="http://www.w3.org/2000/svg" width="20" height="20" viewBox="0 0 20 20">
    <defs>
        <style>
            .cls-1{fill:#fff;stroke:#707070}.cls-2{clip-path:url(#clip-path)}.cls-3{fill:#c2c2c2}
        </style>
        <clipPath id="clip-path">
            <path id="Rectangle_1552" d="M0 0h20v20H0z" class="cls-1" data-name="Rectangle 1552" transform="translate(10 808)"/>
        </clipPath>
    </defs>
    <g id="icon_del" transform="translate(-10 -773)">
        <g id="icon_del-2" class="cls-2" data-name="icon_del" transform="translate(0 -35)">
            <g id="delete" transform="translate(10 808)">
                <path id="Union_33" d="M-5871.292-781a.783.783 0 0 1-.78-.715l-1.294-14.715H-5875V-798h5.458v-1.7a1.308 1.308 0 0 1 1.305-1.306h5.118a1.307 1.307 0 0 1 1.3 1.306v1.7h5.457v1.567h-1.659l-1.294 14.715a.784.784 0 0 1-.78.715zm.718-1.566h9.765l1.221-13.864h-12.212zm7.193-15.431v-1.436h-4.6V-798zm-.392 13.1l.341-9.27 1.564.057-.339 9.268zm-5.718-9.212l1.566-.057.339 9.268-1.565.057zm3.028 9.24v-9.268h1.566v9.268z" class="cls-3" data-name="Union 33" transform="translate(5875.679 801)"/>
            </g>
        </g>
    </g>
</svg>
