<svg xmlns="http://www.w3.org/2000/svg" width="40" height="40" viewBox="0 0 40 40">
    <defs>
        <style>
            .cls-1{fill:#fff}
        </style>
    </defs>
    <g id="icon_index_long_on" transform="translate(-163 -193)">
        <path id="Path_17" d="M21.67 14.51v3.44h3.01l-.49-3.63z" class="cls-1" data-name="Path 17" transform="translate(163 193)"/>
        <path id="Path_18" d="M20 0a20 20 0 1 0 20 20A19.994 19.994 0 0 0 20 0zm-3.13 11.56l-2.89 7.21h1.29a1.178 1.178 0 0 1 .91.43 1.383 1.383 0 0 1 .39.95v8.68a1.668 1.668 0 0 1-.31 1.04 1.19 1.19 0 0 1-.98.52h-2.24a1.083 1.083 0 0 1-.82-.43 1.626 1.626 0 0 1-.39-1.12v-7.59l-.11-.03-1.26-.5c-.59-.23-.88-.58-.88-1.04a1.111 1.111 0 0 1 .08-.3l3.7-9.31a.8.8 0 0 1 .81-.53 2.636 2.636 0 0 1 .77.17l1.24.44c.55.19.82.46.82.82a2.68 2.68 0 0 1-.13.59zm13.57 17.68c0 .52-.21.78-.61.78h-2.51a1 1 0 0 1-.69-.24 1.159 1.159 0 0 1-.43-.71l-1.05-7.68h-3.47v4.49l1.89-.85a1.427 1.427 0 0 1 .59-.15c.29 0 .56.22.79.66l.45.85a.487.487 0 0 1 .05.25c0 .33-.28.61-.83.83l.6 1.05a1.482 1.482 0 0 1 .23.53.472.472 0 0 1-.12.32 3.509 3.509 0 0 1-.46.3l-1.01.64a1.127 1.127 0 0 1-.61.17.767.767 0 0 1-.64-.47l-.8-1.43-2.18.86a2.111 2.111 0 0 1-.74.14 1.032 1.032 0 0 1-.93-.47l-.38-.64a2.612 2.612 0 0 1-.3-1.36v-14.9a1.563 1.563 0 0 1-.01-.25c0-.81.44-1.24 1.3-1.29l9.74-.59a1.7 1.7 0 0 1 .22-.01.992.992 0 0 1 1.11.98l.2 1.78a1.858 1.858 0 0 1 .01.26c0 .55-.38.85-1.13.91l-2.08.15.54 3.81h2.29c.53 0 .8.29.8.86v1.72c0 .58-.27.86-.8.86h-1.8l.91 6.39h1.26c.41 0 .61.23.61.69v.76z" class="cls-1" data-name="Path 18" transform="translate(163 193)"/>
    </g>
</svg>
