<svg xmlns="http://www.w3.org/2000/svg" width="30" height="30" viewBox="0 0 30 30">
    <defs>
        <style>
            .cls-1{fill:#d1d1d1}.cls-2{clip-path:url(#clip-path)}.cls-3{fill:#fff}
        </style>
        <clipPath id="clip-path">
            <path id="Rectangle_1467" d="M0 0h30v30H0z" class="cls-1" data-name="Rectangle 1467"/>
        </clipPath>
    </defs>
    <g id="icon_index_recharge" class="cls-2">
        <g id="存款">
            <path id="Union_19" d="M16.758 30a.879.879 0 0 1-.879-.879v-.938h-5.273v.938a.879.879 0 0 1-.879.879H6.211a.879.879 0 0 1-.879-.879v-3.147a9.72 9.72 0 0 1-2.46-3.063h-.287A2.642 2.642 0 0 1 0 20.274v-1.758a2.641 2.641 0 0 1 2.169-2.6 9.514 9.514 0 0 1 2.084-3.808l-.666-4a.88.88 0 0 1 .866-1.018 6.062 6.062 0 0 1 4.576 2.072 9.6 9.6 0 0 1 1.577-.275v-.04a3.515 3.515 0 1 1 7.031 0v.078a10.318 10.318 0 0 1 5.537 2.475 9.388 9.388 0 0 1 3.21 6.21v.028h.039a1.811 1.811 0 0 0 1.816-1.758 1.748 1.748 0 0 0-.514-1.243.879.879 0 0 1 1.243-1.243A3.492 3.492 0 0 1 30 15.879a3.456 3.456 0 0 1-1.068 2.5 3.584 3.584 0 0 1-2.506 1.021h-.042a9.669 9.669 0 0 1-5.231 7.735v1.991a.879.879 0 0 1-.879.879zm.879-4.453v2.7h1.758v-1.674a.878.878 0 0 1 .526-.805 7.922 7.922 0 0 0 4.712-8 8.067 8.067 0 0 0-7.489-7.129 3.512 3.512 0 0 1-6.059-.023 7.873 7.873 0 0 0-2.095.39.879.879 0 0 1-.99-.318 4.4 4.4 0 0 0-2.489-1.71l.545 3.274a.879.879 0 0 1-.241.762 7.764 7.764 0 0 0-2.084 3.918.88.88 0 0 1-.862.7h-.232a.88.88 0 0 0-.879.88v1.758a.88.88 0 0 0 .879.879h.792a.877.877 0 0 1 .8.527 7.952 7.952 0 0 0 2.506 3.164.878.878 0 0 1 .351.7v2.695h1.762v-2.864a.879.879 0 1 1 1.758 0v1.054h5.273v-.879a.879.879 0 0 1 1.758 0zm-5.273-16.7a1.758 1.758 0 1 0 1.757-1.757 1.76 1.76 0 0 0-1.758 1.758zm-7.031 7.91a.879.879 0 1 1 .879.879.879.879 0 0 1-.88-.878zm6.153-.879a.879.879 0 0 1 0-1.758h5.273a.879.879 0 0 1 0 1.758zm6.15-12.363a3.516 3.516 0 1 1 3.516 3.516 3.52 3.52 0 0 1-3.516-3.516zm1.758 0a1.758 1.758 0 1 0 1.758-1.758 1.76 1.76 0 0 0-1.757 1.758z" class="cls-3" data-name="Union 19"/>
        </g>
    </g>
</svg>
