<svg xmlns="http://www.w3.org/2000/svg" width="24" height="24" viewBox="0 0 24 24">
    <defs>
        <style>
            .cls-1{fill:#fff}.cls-2{clip-path:url(#clip-path)}.cls-3{fill:url(#linear-gradient)}
        </style>
        <clipPath id="clip-path">
            <path id="Rectangle_1581" d="M0 0h24v24H0z" class="cls-1" data-name="Rectangle 1581" transform="translate(7878 2417)"/>
        </clipPath>
        <linearGradient id="linear-gradient" x1=".5" x2=".5" y2="1" gradientUnits="objectBoundingBox">
            <stop offset="0" stop-color="#eec069"/>
            <stop offset="1" stop-color="#ff944d"/>
        </linearGradient>
    </defs>
    <g id="icon_shoppingCart_on" transform="translate(-88 -806)">
        <g id="Mask_Group_44" class="cls-2" data-name="Mask Group 44" transform="translate(-7790 -1611)">
            <g id="shopping-cart" transform="translate(7878 2417.01)">
                <g id="Cart">
                    <g id="Group_216" data-name="Group 216">
                        <path id="Path_433" d="M.023.577A.749.749 0 0 1 .932.031l3 .749a.749.749 0 0 1 .559.609l.38 2.4L23.343 6.01c.014 0 .025.012.041.015s.033 0 .051 0a.674.674 0 0 1 .112.053.705.705 0 0 1 .12.057.746.746 0 0 1 .136.13.762.762 0 0 1 .067.062.1.1 0 0 1 .007.019.771.771 0 0 1 .085.205.7.7 0 0 1 .027.076.785.785 0 0 1-.01.306l-2.251 8.992-.749 3c-.006.022-.019.039-.026.059a.66.66 0 0 1-.046.1.711.711 0 0 1-.091.136 1.613 1.613 0 0 1-.07.076.774.774 0 0 1-.145.1.641.641 0 0 1-.08.044.761.761 0 0 1-.268.051H4.5a.749.749 0 1 1 0-1.5h15.167l.375-1.5H6a.738.738 0 0 1-.264-.047.889.889 0 0 1-.091-.052.731.731 0 0 1-.134-.08.913.913 0 0 1-.076-.089.984.984 0 0 1-.091-.112.965.965 0 0 1-.044-.129.779.779 0 0 1-.044-.118v-.024L3.086 2.114.569 1.486A.748.748 0 0 1 .023.577zM20.416 15l1.9-7.6-2.326-.279L18.865 15zm-3.065 0L18.5 6.939l-2.337-.28L15.788 15zm-4.633 0h1.565l.388-8.516-2.334-.284zm-3.055 0h1.553l-.39-8.977L8.5 5.741zm-3.007 0H8.15L6.97 5.555l-1.6-.191zm10.6 5.995a1.5 1.5 0 1 1-1.5 1.5 1.5 1.5 0 0 1 1.497-1.505zm-9.753 0A1.5 1.5 0 1 1 6 22.49a1.5 1.5 0 0 1 1.5-1.5z" class="cls-3" data-name="Path 433" transform="translate(0 -.009)"/>
                    </g>
                </g>
            </g>
        </g>
    </g>
</svg>
