<svg xmlns="http://www.w3.org/2000/svg" width="48" height="48" viewBox="0 0 48 48">
    <defs>
        <style>
            .cls-1{fill:#13b4be}.cls-2{fill:#e88705}.cls-3{fill:#ddc9ac}.cls-4{fill:#4f0204}.cls-5{fill:#efe1ca}.cls-6{fill:#353430}.cls-7{fill:#ff9804}.cls-8{fill:#e8858a}.cls-9{fill:#f9afb0}.cls-10{fill:#483026}.cls-11{fill:#d3c0a5}
        </style>
    </defs>
    <g id="icon_tiger" transform="translate(-24 -228)">
        <path id="Path_219" d="M471.785 83.87a23.994 23.994 0 0 1-12.551 21.1c-3.4 1.85-7.22-.568-11.367-.568-4.293 0-8.406 2.341-11.894.366a24 24 0 1 1 35.812-20.9z" class="cls-1" data-name="Path 219" transform="translate(-399.785 168.13)"/>
        <path id="Path_220" d="M448.628 94.213c-6.426 0-11.635 5.748-11.635 12.84v.358a23.919 23.919 0 0 0 3.956 1.786c2.46.852 5.1-.539 7.852-.539 2.612 0 5.128 1.436 7.482.665a23.854 23.854 0 0 0 3.969-1.714c.007-.185.013-.369.013-.556 0-7.092-5.21-12.84-11.637-12.84z" class="cls-2" data-name="Path 220" transform="translate(-400.801 165.488)"/>
        <path id="Path_221" d="M448.945 99.292c-4.326 0-7.831 3.87-7.831 8.643a9.628 9.628 0 0 0 .152 1.653 24.12 24.12 0 0 0 15.333.126 9.612 9.612 0 0 0 .178-1.779c.001-4.773-3.506-8.643-7.832-8.643z" class="cls-3" data-name="Path 221" transform="translate(-401.118 165.098)"/>
        <g id="Group_136" data-name="Group 136" transform="translate(31.315 235.585)">
            <path id="Path_222" d="M449.623 80.447l-3.238 8.4 3.238 12.846c7.563 0 11.3-5.3 13.325-10.734C468.592 75.8 457.2 80.3 449.623 80.447z" class="cls-3" data-name="Path 222" transform="translate(-432.839 -68.981)"/>
            <g id="Group_124" data-name="Group 124" transform="translate(0 1.133)">
                <path id="Path_223" d="M442.009 69.877s-5.908-.307-7.9-.539c-2.178-.255-2.884 1.6-1.171 3.823a23.615 23.615 0 0 0 3.58 3.7z" class="cls-4" data-name="Path 223" transform="translate(-431.731 -69.315)"/>
                <path id="Path_224" d="M440.213 71.19s-4.239 0-6.014-1.48c-1.684-1.4-3.516 1.48-1.8 3.7a23.583 23.583 0 0 0 3.58 3.7z" class="cls-5" data-name="Path 224" transform="translate(-431.71 -69.317)"/>
            </g>
            <g id="Group_125" data-name="Group 125" transform="translate(23.093 1.133)">
                <path id="Path_225" d="M456.727 69.877s5.907-.307 7.9-.539c2.178-.255 2.884 1.6 1.171 3.823a23.634 23.634 0 0 1-3.579 3.7z" class="cls-4" data-name="Path 225" transform="translate(-456.727 -69.315)"/>
                <path id="Path_226" d="M458.648 71.19s4.239 0 6.015-1.48c1.683-1.4 3.516 1.48 1.8 3.7a23.63 23.63 0 0 1-3.58 3.7z" class="cls-5" data-name="Path 226" transform="translate(-456.875 -69.317)"/>
            </g>
            <path id="Path_227" d="M448.646 80.485c-.123 0-.247.007-.369.007-7.563 0-17.673-3.007-13.695 10.5a14.486 14.486 0 0 0 14.064 10.734z" class="cls-5" data-name="Path 227" transform="translate(-431.862 -69.019)"/>
            <g id="Group_126" data-name="Group 126" transform="translate(14.235 26.027)">
                <path id="Path_228" d="M448.675 100.1a1.367 1.367 0 0 1-.263-.024 1.913 1.913 0 0 1-1.265-1.063.125.125 0 0 1 .048-.173.127.127 0 0 1 .172.048 1.679 1.679 0 0 0 1.092.938 1.5 1.5 0 0 0 1.084-.272v-3.145a.127.127 0 0 1 .255 0v3.207a.127.127 0 0 1-.047.1 1.865 1.865 0 0 1-1.076.384z" class="cls-6" data-name="Path 228" transform="translate(-447.131 -96.283)"/>
            </g>
            <g id="Group_127" data-name="Group 127" transform="translate(16.668 26.027)">
                <path id="Path_229" d="M450.889 100.1a1.365 1.365 0 0 0 .262-.024 1.918 1.918 0 0 0 1.266-1.063.127.127 0 0 0-.221-.125 1.679 1.679 0 0 1-1.092.938 1.5 1.5 0 0 1-1.085-.272v-3.145a.127.127 0 0 0-.254 0v3.207a.127.127 0 0 0 .047.1 1.868 1.868 0 0 0 1.077.384z" class="cls-6" data-name="Path 229" transform="translate(-449.767 -96.283)"/>
            </g>
            <path id="Path_230" d="M465.35 88.839c0 4.521-2.735 8.189-6.108 8.189s-6.108-3.667-6.108-8.189 2.734-8.189 6.108-8.189 6.108 3.666 6.108 8.189z" class="cls-3" data-name="Path 230" transform="translate(-433.358 -69.053)"/>
            <path id="Path_231" d="M444.728 88.839c0 4.521-2.735 8.189-6.108 8.189s-6.108-3.667-6.108-8.189 2.734-8.189 6.108-8.189 6.108 3.666 6.108 8.189z" class="cls-5" data-name="Path 231" transform="translate(-431.771 -69.053)"/>
            <path id="Path_232" d="M449.433 68.087l-5.52 11.288 5.52 12.583c8.279 0 14.99-3.261 14.99-10.594a12.964 12.964 0 0 0-6.783-11.112 16.035 16.035 0 0 0-3.315-.9 16.153 16.153 0 0 0-4.892-1.265z" class="cls-2" data-name="Path 232" transform="translate(-432.648 -68.087)"/>
            <path id="Path_233" d="M455.639 70.413a3.022 3.022 0 0 0 2.423-.162 16.154 16.154 0 0 0-8.206-2.165l-.44.9a3.627 3.627 0 0 0 .44-.284c1.059.8 1.8.6 3.23 1.146 1.556.598 1.148-.168 2.553.565z" class="cls-4" data-name="Path 233" transform="translate(-433.072 -68.087)"/>
            <path id="Path_234" d="M448.644 68.087c-1.477 0-2.768.913-4.117 1.266-1.423.372-2.9.2-4.109.91a12.96 12.96 0 0 0-6.763 11.1c0 7.333 6.711 10.594 14.989 10.594z" class="cls-7" data-name="Path 234" transform="translate(-431.859 -68.087)"/>
            <path id="Path_235" d="M440.972 70.268a3.088 3.088 0 0 0 2.453.145c1.406-.733 1 .033 2.551-.563 1.434-.548 2.171-.347 3.231-1.146v-.617a14.885 14.885 0 0 0-8.235 2.181z" class="cls-4" data-name="Path 235" transform="translate(-432.422 -68.087)"/>
            <path id="Path_236" d="M446.947 87.538s-6.108 7.095 2.559 7.341V86.8z" class="cls-7" data-name="Path 236" transform="translate(-432.721 -69.526)"/>
            <path id="Path_237" d="M452.454 87.538s6.107 7.095-2.561 7.341V86.8z" class="cls-2" data-name="Path 237" transform="translate(-433.108 -69.526)"/>
            <path id="Path_238" d="M449.81 94.277l-.994 1.044.994 1.355s3.208-.314 3.577-1.772c.313-1.222-3.577-.627-3.577-.627z" class="cls-8" data-name="Path 238" transform="translate(-433.026 -70.09)"/>
            <path id="Path_239" d="M449.594 94.277v2.4s-3.207-.314-3.576-1.772c-.31-1.223 3.576-.628 3.576-.628z" class="cls-9" data-name="Path 239" transform="translate(-432.809 -70.09)"/>
            <path id="Path_240" d="M456.108 82.658a1.284 1.284 0 1 1-1.284-1.285 1.284 1.284 0 0 1 1.284 1.285z" class="cls-10" data-name="Path 240" transform="translate(-433.389 -69.109)"/>
            <path id="Path_241" d="M445.813 82.658a1.285 1.285 0 1 1-1.285-1.285 1.284 1.284 0 0 1 1.285 1.285z" class="cls-10" data-name="Path 241" transform="translate(-432.597 -69.109)"/>
            <path id="Path_242" d="M449.446 71.056a1.646 1.646 0 0 0-.321-.093h-.032a1.647 1.647 0 0 0-.321.093l-9.08 2.411s2.229 1.453 3.635.721 1 .033 2.552-.562c1.433-.548 2.17-.348 3.23-1.147 1.06.8 1.8.6 3.23 1.147 1.555.6 1.147-.17 2.552.562s3.635-.721 3.635-.721z" class="cls-4" data-name="Path 242" transform="translate(-432.324 -68.308)"/>
            <path id="Path_243" d="M449.535 75.633a1.288 1.288 0 0 0-.258-.075h-.025a1.287 1.287 0 0 0-.258.075l-7.286 1.935s1.789 1.166 2.915.578.8.027 2.049-.451c1.149-.44 1.742-.279 2.592-.92.849.642 1.443.48 2.592.92 1.247.478.92-.136 2.047.451s2.917-.578 2.917-.578z" class="cls-4" data-name="Path 243" transform="translate(-432.479 -68.662)"/>
            <g id="Group_128" data-name="Group 128" transform="translate(2.774 13.635)">
                <path id="Path_244" d="M435.241 86.952s.566 4.242 7.56 4.776c0 0-2.731 1.867-5.225.53s-.366-1.179-1.53-1.75a2.48 2.48 0 0 1-.805-3.556z" class="cls-4" data-name="Path 244" transform="translate(-434.72 -83.173)"/>
                <path id="Path_245" d="M438.549 82.858s.354 2.643 4.71 2.976a3.438 3.438 0 0 1-3.254.33c-1.554-.834-.229-.735-.954-1.09a1.547 1.547 0 0 1-.502-2.216z" class="cls-4" data-name="Path 245" transform="translate(-434.988 -82.858)"/>
                <path id="Path_246" d="M434.858 92.3s1.127 2.948 6.237 2.144c0 0-1.643 1.8-3.659 1.267s-.463-.784-1.4-1a1.83 1.83 0 0 1-1.178-2.411z" class="cls-4" data-name="Path 246" transform="translate(-434.715 -83.585)"/>
            </g>
            <g id="Group_129" data-name="Group 129" transform="translate(21.749 13.635)">
                <path id="Path_247" d="M463.037 86.952s-.565 4.242-7.559 4.776c0 0 2.731 1.867 5.224.53s.366-1.179 1.53-1.75a2.48 2.48 0 0 0 .805-3.556z" class="cls-4" data-name="Path 247" transform="translate(-455.287 -83.173)"/>
                <path id="Path_248" d="M459.981 82.858s-.353 2.643-4.71 2.976a3.439 3.439 0 0 0 3.254.33c1.554-.834.229-.735.954-1.09a1.547 1.547 0 0 0 .502-2.216z" class="cls-4" data-name="Path 248" transform="translate(-455.271 -82.858)"/>
                <path id="Path_249" d="M463.555 92.3s-1.126 2.948-6.237 2.144c0 0 1.643 1.8 3.659 1.267s.463-.784 1.4-1a1.83 1.83 0 0 0 1.178-2.411z" class="cls-4" data-name="Path 249" transform="translate(-455.428 -83.585)"/>
            </g>
            <g id="Group_132" data-name="Group 132" transform="translate(.179 25.359)">
                <g id="Group_130" data-name="Group 130" transform="translate(2.038 2.063)">
                    <path id="Path_250" d="M434.225 105.264a.054.054 0 0 1-.026-.006.126.126 0 0 1-.08-.16c1.811-5.346 9.473-7.28 9.55-7.3a.128.128 0 0 1 .061.248c-.076.018-7.605 1.919-9.369 7.134a.125.125 0 0 1-.136.084z" class="cls-11" data-name="Path 250" transform="translate(-434.112 -97.794)"/>
                </g>
                <g id="Group_131" data-name="Group 131">
                    <path id="Path_251" d="M431.96 98.519a.052.052 0 0 1-.018-.013.115.115 0 0 1-.009-.162c3.393-3.761 10.393-2.628 10.463-2.617a.114.114 0 0 1 .092.133.111.111 0 0 1-.129.092c-.07-.01-6.948-1.122-10.255 2.546a.115.115 0 0 1-.144.021z" class="cls-11" data-name="Path 251" transform="translate(-431.904 -95.56)"/>
                </g>
            </g>
            <g id="Group_135" data-name="Group 135" transform="translate(20.953 25.359)">
                <g id="Group_133" data-name="Group 133" transform="translate(0 2.063)">
                    <path id="Path_252" d="M464.01 105.264a.054.054 0 0 0 .026-.006.126.126 0 0 0 .08-.16c-1.811-5.346-9.473-7.28-9.55-7.3a.126.126 0 0 0-.153.1.128.128 0 0 0 .092.153c.076.018 7.605 1.919 9.369 7.134a.126.126 0 0 0 .136.079z" class="cls-11" data-name="Path 252" transform="translate(-454.409 -97.794)"/>
                </g>
                <g id="Group_134" data-name="Group 134" transform="translate(1.166)">
                    <path id="Path_253" d="M466.2 98.519a.052.052 0 0 0 .018-.013.115.115 0 0 0 .009-.162c-3.393-3.761-10.393-2.628-10.463-2.617a.114.114 0 0 0-.092.133.112.112 0 0 0 .13.092c.068-.01 6.946-1.122 10.255 2.546a.114.114 0 0 0 .143.021z" class="cls-11" data-name="Path 253" transform="translate(-455.672 -95.56)"/>
                </g>
            </g>
        </g>
        <g id="Group_137" data-name="Group 137" transform="translate(40.635 270.345)">
            <path id="Path_254" d="M441.955 107.042s2.135-1.463 5.206 1.464a3.342 3.342 0 0 0-1.876-2.562c-1.61-.58-.678.312-1.407.02a1.5 1.5 0 0 0-1.923 1.078z" class="cls-4" data-name="Path 254" transform="translate(-441.818 -105.744)"/>
            <path id="Path_255" d="M441.815 110.376s1.517-1.716 5.053.142a3.145 3.145 0 0 0-2.36-1.835c-1.607-.109-.533.458-1.267.381a1.259 1.259 0 0 0-1.426 1.312z" class="cls-4" data-name="Path 255" transform="translate(-441.807 -105.969)"/>
        </g>
        <g id="Group_138" data-name="Group 138" transform="translate(49.765 270.345)">
            <path id="Path_256" d="M456.9 107.042s-2.134-1.463-5.205 1.464a3.339 3.339 0 0 1 1.877-2.562c1.609-.58.678.312 1.4.02a1.5 1.5 0 0 1 1.928 1.078z" class="cls-4" data-name="Path 256" transform="translate(-451.697 -105.744)"/>
            <path id="Path_257" d="M457.1 110.477s-1.561-1.818-5.1.041a3.144 3.144 0 0 1 2.359-1.835c1.607-.109.534.458 1.268.381a1.37 1.37 0 0 1 1.473 1.413z" class="cls-4" data-name="Path 257" transform="translate(-451.72 -105.969)"/>
        </g>
    </g>
</svg>
