<svg xmlns="http://www.w3.org/2000/svg" width="30" height="30" viewBox="0 0 30 30">
    <defs>
        <style>
            .cls-1{fill:#fff}.cls-2{clip-path:url(#clip-path)}
        </style>
        <clipPath id="clip-path">
            <path id="Rectangle_1470" d="M0 0h30v30H0z" class="cls-1" data-name="Rectangle 1470"/>
        </clipPath>
    </defs>
    <g id="icon_index_offer" class="cls-2">
        <g id="優惠活動">
            <g id="Group_90" data-name="Group 90">
                <path id="Path_133" d="M27.363 7.031h-3.576A4.392 4.392 0 0 0 20.273 0a3.944 3.944 0 0 0-3.387 1.646A17.063 17.063 0 0 0 15 5.554a17.062 17.062 0 0 0-1.886-3.908A3.944 3.944 0 0 0 9.727 0a4.392 4.392 0 0 0-3.514 7.031H2.637A2.64 2.64 0 0 0 0 9.668v1.758a2.641 2.641 0 0 0 1.758 2.486v13.451A2.64 2.64 0 0 0 4.395 30h21.21a2.64 2.64 0 0 0 2.637-2.637V13.911A2.641 2.641 0 0 0 30 11.426V9.668a2.64 2.64 0 0 0-2.637-2.637zm-10.75-.777c1.346-3.416 1.858-4.5 3.66-4.5a2.637 2.637 0 0 1 0 5.273h-3.967c.108-.266.21-.527.307-.773zm-6.887-4.5c1.8 0 2.314 1.081 3.66 4.5.1.246.2.507.307.777H9.727a2.637 2.637 0 0 1 0-5.273zm1.758 26.484H4.395a.88.88 0 0 1-.879-.879v-13.3h7.969zm0-15.937H2.637a.88.88 0 0 1-.879-.879V9.668a.88.88 0 0 1 .879-.879h8.848zm5.273 15.938h-3.515V8.789h3.516zm9.727-.879a.88.88 0 0 1-.879.879h-7.09V14.063h7.969zm1.758-15.937a.88.88 0 0 1-.879.879h-8.847V8.789h8.848a.88.88 0 0 1 .879.879z" class="cls-1" data-name="Path 133"/>
            </g>
        </g>
    </g>
</svg>
