<svg xmlns="http://www.w3.org/2000/svg" width="48" height="48.003" viewBox="0 0 48 48.003">
    <defs>
        <style>
            .cls-1{fill:#f15a29}.cls-2{fill:#462321}.cls-3{fill:#c19867}.cls-4{fill:#351717}.cls-5{fill:#5f443d}.cls-6{fill:#ceb089}.cls-7{fill:#423737}.cls-8{fill:#5c5656}
        </style>
    </defs>
    <g id="icon_dog" transform="translate(-24 -228)">
        <path id="Path_391" d="M302.962 478.647a24.009 24.009 0 0 1-14.349 21.981c-2.953 1.3-6.543-1.3-9.976-1.3s-6.373 2.6-9.327 1.3a24 24 0 1 1 33.652-21.98z" class="cls-1" data-name="Path 391" transform="translate(-230.962 -226.645)"/>
        <path id="Path_392" d="M280.158 491.4c-5.331 0-9.653 5.277-9.653 11.788v.267a24.061 24.061 0 0 0 19.305 0v-.266c.001-6.512-4.321-11.789-9.652-11.789z" class="cls-2" data-name="Path 392" transform="translate(-232.158 -229.472)"/>
        <path id="Path_393" d="M285.963 498.486c0 3.586-2.38 6.492-5.317 6.492s-5.316-2.906-5.316-6.492 2.381-6.491 5.316-6.491 5.317 2.905 5.317 6.491z" class="cls-3" data-name="Path 393" transform="translate(-232.529 -229.518)"/>
        <g id="Group_182" data-name="Group 182" transform="translate(26.984 232.139)">
            <path id="Path_394" d="M275.295 460.758s-8.239-1.885-11.571 8.923c-1.711 5.556-1.975 9.8-4.813 11.376s3.186 9.67 10.436 4.725 5.948-25.024 5.948-25.024z" class="cls-4" data-name="Path 394" transform="translate(-258.195 -459.245)"/>
            <path id="Path_395" d="M285.2 460.758s8.24-1.885 11.571 8.923c1.713 5.556 1.975 9.8 4.813 11.376s-3.186 9.67-10.437 4.725-5.947-25.024-5.947-25.024z" class="cls-4" data-name="Path 395" transform="translate(-260.265 -459.245)"/>
            <path id="Path_396" d="M280.849 459.129l-3.31 17.167 3.31 17.166c7.576 0 13.714-7.686 13.714-17.166s-6.138-17.167-13.714-17.167z" class="cls-2" data-name="Path 396" transform="translate(-259.683 -459.129)"/>
            <path id="Path_397" d="M279.982 459.129c-7.574 0-13.713 7.686-13.713 17.167s6.139 17.166 13.713 17.166z" class="cls-5" data-name="Path 397" transform="translate(-258.816 -459.129)"/>
            <path id="Path_398" d="M277.518 483.906c0 3.745-2.624 6.779-5.864 6.779s-5.864-3.034-5.864-6.779 2.627-6.778 5.864-6.778 5.864 3.036 5.864 6.778z" class="cls-5" data-name="Path 398" transform="translate(-258.779 -460.514)"/>
            <path id="Path_399" d="M295 483.906c0 3.745-2.624 6.779-5.863 6.779s-5.864-3.034-5.864-6.779 2.625-6.778 5.864-6.778 5.863 3.036 5.863 6.778z" class="cls-2" data-name="Path 399" transform="translate(-260.124 -460.514)"/>
            <path id="Path_400" d="M280.873 479.52l-3.025 8.071 3.025 9.185c5.731 0 10.376-3.863 10.376-8.628s-4.649-8.628-10.376-8.628z" class="cls-3" data-name="Path 400" transform="translate(-259.707 -460.698)"/>
            <path id="Path_401" d="M280.261 479.52c-5.73 0-10.374 3.862-10.374 8.628s4.644 8.628 10.374 8.628z" class="cls-6" data-name="Path 401" transform="translate(-259.094 -460.698)"/>
            <g id="Group_180" data-name="Group 180" transform="translate(18.141 25.83)">
                <path id="Path_402" d="M279.7 491.69a1.572 1.572 0 0 1-.315-.03 2.3 2.3 0 0 1-1.518-1.273.152.152 0 0 1 .264-.151 2.019 2.019 0 0 0 1.31 1.127 1.8 1.8 0 0 0 1.3-.329v-3.771a.153.153 0 0 1 .306 0v3.846a.15.15 0 0 1-.057.119 2.207 2.207 0 0 1-1.29.462z" class="cls-7" data-name="Path 402" transform="translate(-277.847 -487.111)"/>
            </g>
            <g id="Group_181" data-name="Group 181" transform="translate(21.062 25.83)">
                <path id="Path_403" d="M282.357 491.69a1.531 1.531 0 0 0 .314-.03 2.3 2.3 0 0 0 1.519-1.273.153.153 0 0 0-.266-.151 2.017 2.017 0 0 1-1.31 1.127 1.792 1.792 0 0 1-1.3-.329v-3.771a.153.153 0 0 0-.154-.152.151.151 0 0 0-.15.152v3.846a.148.148 0 0 0 .054.119 2.224 2.224 0 0 0 1.293.462z" class="cls-7" data-name="Path 403" transform="translate(-281.012 -487.111)"/>
            </g>
            <path id="Path_404" d="M281.138 484.221l-.306 1.245.306 1.806s2.847-1.5 2.423-2.608-2.423-.443-2.423-.443z" class="cls-7" data-name="Path 404" transform="translate(-259.936 -461.044)"/>
            <path id="Path_405" d="M280.958 484.221v3.052s-2.849-1.5-2.422-2.608 2.422-.444 2.422-.444z" class="cls-8" data-name="Path 405" transform="translate(-259.756 -461.044)"/>
            <path id="Path_406" d="M288.285 474.2a1.092 1.092 0 1 1-1.09-1.091 1.09 1.09 0 0 1 1.09 1.091z" class="cls-4" data-name="Path 406" transform="translate(-260.341 -460.204)"/>
            <path id="Path_407" d="M275.967 474.2a1.091 1.091 0 1 1-1.09-1.091 1.091 1.091 0 0 1 1.09 1.091z" class="cls-4" data-name="Path 407" transform="translate(-259.394 -460.204)"/>
        </g>
    </g>
</svg>
