<svg xmlns="http://www.w3.org/2000/svg" width="48" height="48" viewBox="0 0 48 48">
    <defs>
        <style>
            .cls-1{fill:#18466b}.cls-2{fill:#eaae7d}.cls-3{fill:#eaceb9}.cls-4{fill:#faca9e}.cls-5{fill:#f9e1cf}.cls-6{fill:#f9d7bb}.cls-7{fill:#fcf0e6}.cls-8{fill:#eab488}.cls-9{fill:#bc8358}.cls-10{fill:#c66d55}.cls-11{fill:#e09176}.cls-12{fill:#58595b}
        </style>
    </defs>
    <g id="icon_rabbit" transform="translate(-24 -228)">
        <path id="Path_258" d="M138.638 215.425a24.009 24.009 0 0 1-16.273 22.729c-2.425.824-5.21-1.228-7.914-1.228-2.838 0-5.374 2.007-7.9 1.1a24 24 0 1 1 32.087-22.6z" class="cls-1" data-name="Path 258" transform="translate(-66.638 36.575)"/>
        <path id="Path_259" d="M115.785 232.264c-4.36 0-7.9 3.987-7.908 8.906a23.789 23.789 0 0 0 2.317.7c1.848.458 3.781-1.316 5.771-1.316 1.852 0 3.656 1.808 5.389 1.41a23.855 23.855 0 0 0 2.337-.664v-.1c0-4.939-3.54-8.936-7.906-8.936z" class="cls-2" data-name="Path 259" transform="translate(-67.964 33.434)"/>
        <path id="Path_260" d="M115.97 234.426c-3.142 0-5.689 2.875-5.689 6.423a7.194 7.194 0 0 0 .1 1.182 24.119 24.119 0 0 0 11.157.1 7.426 7.426 0 0 0 .118-1.277c.001-3.554-2.545-6.428-5.686-6.428z" class="cls-3" data-name="Path 260" transform="translate(-68.149 33.267)"/>
        <g id="Group_150" data-name="Group 150" transform="translate(33.506 232.603)">
            <g id="Group_140" data-name="Group 140">
                <path id="Path_261" d="M112.262 213.73a20.174 20.174 0 0 1-5.112-13.156c-.178-8.28-7.63-2.851-5.974 4.508s8.569 10.978 8.569 10.978z" class="cls-4" data-name="Path 261" transform="translate(-100.936 -196.412)"/>
                <path id="Path_262" d="M110.719 214.46a18.659 18.659 0 0 1-5.329-9.587c-1.143-5.9-3.283-1.963-1.2 3.1a15.573 15.573 0 0 0 6.255 7.313z" class="cls-5" data-name="Path 262" transform="translate(-101.119 -196.835)"/>
            </g>
            <g id="Group_141" data-name="Group 141" transform="translate(17.663)">
                <path id="Path_263" d="M120.071 213.73a20.174 20.174 0 0 0 5.112-13.156c.178-8.28 7.629-2.851 5.974 4.508s-8.569 10.978-8.569 10.978z" class="cls-2" data-name="Path 263" transform="translate(-120.071 -196.412)"/>
                <path id="Path_264" d="M121.941 214.46a18.659 18.659 0 0 0 5.329-9.587c1.143-5.9 3.283-1.963 1.2 3.1a15.573 15.573 0 0 1-6.255 7.313z" class="cls-6" data-name="Path 264" transform="translate(-120.215 -196.835)"/>
            </g>
            <path id="Path_265" d="M116.708 211.614l-2.172 11.647 2.172 11.646a11.647 11.647 0 1 0 0-23.294z" class="cls-2" data-name="Path 265" transform="translate(-101.982 -197.581)"/>
            <path id="Path_266" d="M115.918 211.614a11.647 11.647 0 1 0 0 23.294z" class="cls-4" data-name="Path 266" transform="translate(-101.193 -197.581)"/>
            <ellipse id="Ellipse_32" cx="3.7" cy="3.721" class="cls-4" data-name="Ellipse 32" rx="3.7" ry="3.721" transform="translate(1.838 25.68)"/>
            <path id="Path_267" d="M129.865 227.953a3.7 3.7 0 1 1-3.7-3.721 3.711 3.711 0 0 1 3.7 3.721z" class="cls-2" data-name="Path 267" transform="translate(-102.592 -198.552)"/>
            <path id="Path_268" d="M124.592 228.512c0 4.319-3.762 7.819-8.4 7.819s-8.4-3.5-8.4-7.819 3.762-7.82 8.4-7.82 8.4 3.501 8.4 7.82z" class="cls-7" data-name="Path 268" transform="translate(-101.463 -198.28)"/>
            <g id="Group_144" data-name="Group 144" transform="translate(.198 29.401)">
                <g id="Group_142" data-name="Group 142" transform="translate(1.853 1.875)">
                    <path id="Path_269" d="M103.26 237.083a.057.057 0 0 1-.024-.006.113.113 0 0 1-.072-.146c1.645-4.859 8.609-6.617 8.679-6.635a.116.116 0 0 1 .054.226c-.067.016-6.911 1.744-8.514 6.484a.115.115 0 0 1-.123.077z" class="cls-8" data-name="Path 269" transform="translate(-103.158 -230.294)"/>
                </g>
                <g id="Group_143" data-name="Group 143">
                    <path id="Path_270" d="M101.2 230.954l-.017-.012a.1.1 0 0 1-.007-.148c3.083-3.418 9.445-2.388 9.509-2.378a.1.1 0 0 1 .084.121.1.1 0 0 1-.118.083c-.064-.009-6.314-1.019-9.32 2.314a.105.105 0 0 1-.131.02z" class="cls-8" data-name="Path 270" transform="translate(-101.151 -228.263)"/>
                </g>
            </g>
            <g id="Group_147" data-name="Group 147" transform="translate(18.232 29.401)">
                <g id="Group_145" data-name="Group 145" transform="translate(0 1.875)">
                    <path id="Path_271" d="M129.414 237.083a.053.053 0 0 0 .023-.006.115.115 0 0 0 .073-.146c-1.646-4.859-8.61-6.617-8.68-6.635a.116.116 0 0 0-.054.226c.068.016 6.911 1.744 8.514 6.484a.116.116 0 0 0 .124.077z" class="cls-8" data-name="Path 271" transform="translate(-120.687 -230.294)"/>
                </g>
                <g id="Group_146" data-name="Group 146" transform="translate(1.06)">
                    <path id="Path_272" d="M131.406 230.954a.1.1 0 0 0 .025-.16c-3.084-3.418-9.446-2.388-9.509-2.378a.1.1 0 0 0 .034.2c.063-.009 6.314-1.019 9.32 2.314a.1.1 0 0 0 .13.024z" class="cls-8" data-name="Path 272" transform="translate(-121.836 -228.263)"/>
                </g>
            </g>
            <g id="Group_148" data-name="Group 148" transform="translate(12.408 29.931)">
                <path id="Path_273" d="M115.781 232.306a1.258 1.258 0 0 1-.238-.022 1.742 1.742 0 0 1-1.15-.966.115.115 0 1 1 .2-.114 1.527 1.527 0 0 0 .992.853 1.361 1.361 0 0 0 .985-.248v-2.857a.115.115 0 0 1 .115-.114.116.116 0 0 1 .116.114v2.914a.116.116 0 0 1-.043.09 1.682 1.682 0 0 1-.977.35z" class="cls-9" data-name="Path 273" transform="translate(-114.378 -228.837)"/>
            </g>
            <g id="Group_149" data-name="Group 149" transform="translate(14.62 29.931)">
                <path id="Path_274" d="M117.794 232.306a1.251 1.251 0 0 0 .238-.022 1.745 1.745 0 0 0 1.151-.966.116.116 0 1 0-.2-.114 1.527 1.527 0 0 1-.992.853 1.362 1.362 0 0 1-.985-.248v-2.857a.115.115 0 0 0-.231 0v2.914a.115.115 0 0 0 .042.09 1.686 1.686 0 0 0 .977.35z" class="cls-9" data-name="Path 274" transform="translate(-116.774 -228.837)"/>
            </g>
            <path id="Path_275" d="M116.87 226.646l-.231.944.231 1.368s2.157-1.135 1.836-1.976-1.836-.336-1.836-.336z" class="cls-10" data-name="Path 275" transform="translate(-102.144 -198.726)"/>
            <path id="Path_276" d="M116.733 226.646v2.312s-2.157-1.135-1.836-1.976 1.836-.336 1.836-.336z" class="cls-11" data-name="Path 276" transform="translate(-102.007 -198.726)"/>
            <path id="Path_277" d="M121.807 220.63a.75.75 0 1 1-.75-.75.75.75 0 0 1 .75.75z" class="cls-12" data-name="Path 277" transform="translate(-102.426 -198.217)"/>
            <path id="Path_278" d="M113.346 220.63a.75.75 0 1 1-.75-.75.75.75 0 0 1 .75.75z" class="cls-12" data-name="Path 278" transform="translate(-101.775 -198.217)"/>
        </g>
    </g>
</svg>
