<svg xmlns="http://www.w3.org/2000/svg" width="40" height="40" viewBox="0 0 40 40">
    <defs>
        <style>
            .cls-1{fill:#d4d4d4}.cls-2{clip-path:url(#clip-path)}.cls-3{fill:#f5b546}
        </style>
        <clipPath id="clip-path">
            <path id="Rectangle_1459" d="M0 0h40v40H0z" class="cls-1" data-name="Rectangle 1459" transform="translate(25 250)"/>
        </clipPath>
    </defs>
    <g id="icon_index_hour" class="cls-2" transform="translate(-25 -250)">
        <g id="时时彩_工作區域_1_複本_5" data-name="时时彩_工作區域 1 複本 5" transform="translate(25 250)">
            <path id="Path_43" d="M20 0a20 20 0 1 0 20 20A19.994 19.994 0 0 0 20 0zm-2.74 28.16c0 .53-.15.8-.44.8h-1.15a.41.41 0 0 1-.44-.27h-2.15a1.267 1.267 0 0 1-.8.44h-1.39a.933.933 0 0 1-.84-.53 2.355 2.355 0 0 1-.31-1.24V12.35c0-1.13.38-1.69 1.16-1.69h5.05c.89 0 1.33.53 1.33 1.6v15.9zm12.89-4.4a.633.633 0 0 1-.72.71h-.71v4.72c0 .91-.43 1.37-1.3 1.37h-4.06c-.23 0-.34-.21-.34-.63v-.73c0-.42.12-.62.34-.62h1.14v-4.1h-2.91l1.8 1.9a.9.9 0 0 1 .28.57 1.016 1.016 0 0 1-.4.67l-.86.8a.926.926 0 0 1-.63.3.856.856 0 0 1-.62-.33l-2.12-2.31a.734.734 0 0 1-.21-.52 1.107 1.107 0 0 1 .46-.73l.36-.33h-.95c-.47 0-.71-.27-.71-.8v-1.32a.633.633 0 0 1 .71-.72h5.8v-.58c0-.61.26-.91.79-.91h2.64a.812.812 0 0 1 .61.19 1.042 1.042 0 0 1 .18.72v.58h.71c.48 0 .72.21.72.62zm.13-4.88a2.03 2.03 0 0 1-.07.59.569.569 0 0 1-.61.38H18.68a.562.562 0 0 1-.61-.38 2 2 0 0 1-.08-.59v-.97a1.834 1.834 0 0 1 .17-.87.551.551 0 0 1 .52-.22h3.21v-1.4h-2.71c-.58 0-.87-.39-.87-1.16v-1.51c0-.71.29-1.07.87-1.07h2.71v-1.03c0-.81.46-1.22 1.38-1.22h2.02c.86 0 1.29.41 1.29 1.22v1.03h2.34c.63 0 .94.36.94 1.07v1.51c0 .77-.31 1.16-.94 1.16h-2.34v1.4h3.03a.531.531 0 0 1 .54.29 1.9 1.9 0 0 1 .13.8v.97z" class="cls-3" data-name="Path 43"/>
            <path id="Path_44" d="M13.5 18.39h.69a.623.623 0 0 1 .4.18.558.558 0 0 1 .22.44v1.78a.542.542 0 0 1-.29.41.667.667 0 0 1-.33.12h-.69v5.15h1.71V14.75H13.5z" class="cls-3" data-name="Path 44"/>
        </g>
    </g>
</svg>
