<svg xmlns="http://www.w3.org/2000/svg" width="12" height="12" viewBox="0 0 12 12">
    <defs>
        <style>
            .cls-1{fill:#666}.cls-2{clip-path:url(#clip-path)}
        </style>
        <clipPath id="clip-path">
            <path id="Rectangle_1660" d="M0 0h12v12H0z" class="cls-1" data-name="Rectangle 1660"/>
        </clipPath>
    </defs>
    <g id="icon_index_withdraw" class="cls-2">
        <g id="團隊投注">
            <path id="Path_554" d="M21.673 19.588L19.984 17.9a1.475 1.475 0 0 0-1.717-.269l-.5-.5a4.317 4.317 0 1 0-.637.637l.5.5a1.475 1.475 0 0 0 .269 1.717l1.689 1.689a1.474 1.474 0 0 0 2.085-2.085zm-10.667-5.172a3.41 3.41 0 1 1 3.41 3.41 3.414 3.414 0 0 1-3.41-3.41zm9.22 6.62l-1.689-1.689a.573.573 0 0 1 .811-.811l1.689 1.689a.573.573 0 0 1-.81.81zm0 0" class="cls-1" data-name="Path 554" transform="translate(-10.105 -10.105)"/>
        </g>
    </g>
</svg>
