<svg xmlns="http://www.w3.org/2000/svg" width="14" height="14" viewBox="0 0 14 14">
    <defs>
        <style>
            .cls-1{fill:none}.cls-2{clip-path:url(#clip-path)}.cls-3{clip-path:url(#clip-path-2)}.cls-4{fill:#80c269}
        </style>
        <clipPath id="clip-path">
            <path d="M0 0h14v14H0z" class="cls-1"/>
        </clipPath>
        <clipPath id="clip-path-2">
            <path id="Rectangle_1523" d="M0 0h14v14H0z" class="cls-1" data-name="Rectangle 1523" transform="translate(761 -107)"/>
        </clipPath>
    </defs>
    <g id="icon_list_user_green" class="cls-2">
        <g id="Mask_Group_25" class="cls-3" data-name="Mask Group 25" transform="translate(-761 107)">
            <g id="user" transform="translate(762.16 -107)">
                <path id="Path_118" d="M6.092 6.744a3.263 3.263 0 0 0 2.384-.988 3.263 3.263 0 0 0 .988-2.384A3.263 3.263 0 0 0 8.476.988 3.263 3.263 0 0 0 6.092 0a3.263 3.263 0 0 0-2.384.988 3.263 3.263 0 0 0-.988 2.384 3.263 3.263 0 0 0 .988 2.384 3.264 3.264 0 0 0 2.384.988z" class="cls-4" data-name="Path 118" transform="translate(-.34)"/>
                <path id="Path_119" d="M11.652 11.731a8.329 8.329 0 0 0-.113-.885 6.97 6.97 0 0 0-.218-.889 4.394 4.394 0 0 0-.366-.829 3.127 3.127 0 0 0-.551-.719 2.431 2.431 0 0 0-.792-.5 2.737 2.737 0 0 0-1.012-.18 1.026 1.026 0 0 0-.548.232c-.164.107-.356.231-.571.368a3.271 3.271 0 0 1-.739.325 2.869 2.869 0 0 1-1.807 0 3.262 3.262 0 0 1-.735-.325c-.212-.136-.4-.26-.571-.368a1.025 1.025 0 0 0-.548-.232 2.734 2.734 0 0 0-1.011.183 2.429 2.429 0 0 0-.792.5 3.128 3.128 0 0 0-.551.718 4.4 4.4 0 0 0-.366.83 6.986 6.986 0 0 0-.217.889 8.272 8.272 0 0 0-.113.885C.009 12 0 12.277 0 12.558a2.325 2.325 0 0 0 .69 1.759 2.485 2.485 0 0 0 1.779.649h6.742a2.485 2.485 0 0 0 1.779-.649 2.324 2.324 0 0 0 .691-1.759c0-.282-.01-.56-.028-.827z" class="cls-4" data-name="Path 119" transform="translate(0 -.966)"/>
            </g>
        </g>
    </g>
</svg>
