<svg xmlns="http://www.w3.org/2000/svg" width="48" height="48.001" viewBox="0 0 48 48.001">
    <defs>
        <style>
            .cls-1{fill:#00a79d}.cls-2{fill:#f7adb6}.cls-3{fill:#fbc6ca}.cls-4{fill:#e28696}.cls-5{fill:#5e4444}.cls-6{fill:#f78490}.cls-7{fill:#d84c61}.cls-8{fill:#58595b}
        </style>
    </defs>
    <g id="icon_pig" transform="translate(-24 -228)">
        <path id="Path_408" d="M471.783 478.647a23.993 23.993 0 0 1-12.464 21.053c-3.424 1.88-7.252-1.7-11.433-1.7-4.445 0-8.709 3.438-12.279 1.333a24 24 0 1 1 36.176-20.686z" class="cls-1" data-name="Path 408" transform="translate(-399.783 -226.646)"/>
        <path id="Path_409" d="M448.449 484.772c-7.2 0-13.026 5.4-13.026 12.051a11.234 11.234 0 0 0 1.078 4.828 24.025 24.025 0 0 0 23.706.366 11.254 11.254 0 0 0 1.27-5.194c0-6.655-5.832-12.051-13.028-12.051z" class="cls-2" data-name="Path 409" transform="translate(-400.679 -228.963)"/>
        <g id="Group_188" data-name="Group 188" transform="translate(28.635 237.145)">
            <g id="Group_184" data-name="Group 184">
                <path id="Path_410" d="M448.169 468.525s-10.153-.625-15.169-3.633-6.893 14.913 2.131 17.547z" class="cls-3" data-name="Path 410" transform="translate(-428.805 -464.553)"/>
                <path id="Path_411" d="M444.621 469.907s-7.7-.474-11.5-2.754-5.226 11.307 1.616 13.3z" class="cls-2" data-name="Path 411" transform="translate(-428.892 -464.733)"/>
            </g>
            <g id="Group_185" data-name="Group 185" transform="translate(19.365)">
                <path id="Path_412" d="M449.783 468.525s10.153-.626 15.166-3.633 6.894 14.913-2.132 17.547z" class="cls-2" data-name="Path 412" transform="translate(-449.783 -464.553)"/>
                <path id="Path_413" d="M453.722 469.907s7.7-.474 11.5-2.754 5.225 11.307-1.616 13.3z" class="cls-4" data-name="Path 413" transform="translate(-450.086 -464.733)"/>
            </g>
            <path id="Path_414" d="M449.462 466.558l-3.862 14.018 3.866 14.019h.007a14.026 14.026 0 1 0-.007-28.037z" class="cls-2" data-name="Path 414" transform="translate(-430.096 -464.707)"/>
            <path id="Path_415" d="M448.577 466.558a14.026 14.026 0 1 0 0 28.037z" class="cls-3" data-name="Path 415" transform="translate(-429.211 -464.707)"/>
            <path id="Path_416" d="M449.614 482.8l-2.046 7.53 2.045 7.53c6.855 0 12.409-3.373 12.409-7.53s-5.555-7.53-12.408-7.53z" class="cls-2" data-name="Path 416" transform="translate(-430.248 -465.956)"/>
            <path id="Path_417" d="M448.748 482.8h-.007c-6.858 0-12.416 3.371-12.416 7.53s5.559 7.53 12.416 7.53h.007z" class="cls-3" data-name="Path 417" transform="translate(-429.383 -465.956)"/>
            <g id="Group_186" data-name="Group 186" transform="translate(16.488 23.747)">
                <path id="Path_418" d="M448.41 494.583a1.442 1.442 0 0 1-.3-.029 2.159 2.159 0 0 1-1.427-1.2.143.143 0 0 1 .054-.2.145.145 0 0 1 .195.053 1.892 1.892 0 0 0 1.23 1.06 1.688 1.688 0 0 0 1.223-.307v-3.54a.144.144 0 0 1 .287 0v3.617a.143.143 0 0 1-.052.112 2.1 2.1 0 0 1-1.21.434z" class="cls-5" data-name="Path 418" transform="translate(-446.667 -490.278)"/>
            </g>
            <g id="Group_187" data-name="Group 187" transform="translate(19.234 23.747)">
                <path id="Path_419" d="M450.906 494.583a1.436 1.436 0 0 0 .3-.029 2.156 2.156 0 0 0 1.428-1.2.144.144 0 0 0-.249-.143 1.894 1.894 0 0 1-1.231 1.06 1.7 1.7 0 0 1-1.224-.307v-3.544a.142.142 0 1 0-.284 0v3.617a.142.142 0 0 0 .051.112 2.1 2.1 0 0 0 1.209.434z" class="cls-5" data-name="Path 419" transform="translate(-449.642 -490.278)"/>
            </g>
            <path id="Path_420" d="M453.116 486.425c0 1.38-1.627 3.666-3.636 3.666s-3.636-2.286-3.636-3.666 1.627-2.5 3.636-2.5 3.636 1.121 3.636 2.5z" class="cls-6" data-name="Path 420" transform="translate(-430.115 -466.043)"/>
            <path id="Path_421" d="M449.111 487.046c0 .8-.246 1.457-.548 1.457s-.546-.653-.546-1.457.244-1.457.546-1.457.548.653.548 1.457z" class="cls-7" data-name="Path 421" transform="translate(-430.283 -466.171)"/>
            <path id="Path_422" d="M451.46 487.046c0 .8-.246 1.457-.548 1.457s-.546-.653-.546-1.457.245-1.457.546-1.457.548.653.548 1.457z" class="cls-7" data-name="Path 422" transform="translate(-430.463 -466.171)"/>
            <path id="Path_423" d="M455.787 480.277a.917.917 0 1 1-.916-.918.915.915 0 0 1 .916.918z" class="cls-8" data-name="Path 423" transform="translate(-430.739 -465.692)"/>
            <path id="Path_424" d="M445.443 480.277a.917.917 0 1 1-.917-.918.916.916 0 0 1 .917.918z" class="cls-8" data-name="Path 424" transform="translate(-429.944 -465.692)"/>
            <path id="Path_425" d="M441.2 487.329a4.44 4.44 0 1 1-4.44-4.528 4.485 4.485 0 0 1 4.44 4.528z" class="cls-3" data-name="Path 425" transform="translate(-429.075 -465.956)"/>
            <path id="Path_426" d="M465.876 487.329a4.44 4.44 0 1 1-4.44-4.528 4.485 4.485 0 0 1 4.44 4.528z" class="cls-2" data-name="Path 426" transform="translate(-430.973 -465.956)"/>
        </g>
    </g>
</svg>
