<svg xmlns="http://www.w3.org/2000/svg" width="40" height="40" viewBox="0 0 40 40">
    <defs>
        <style>
            .cls-1{fill:#fff}
        </style>
    </defs>
    <g id="icon_index_11-5_on" transform="translate(-65 -193)">
        <path id="Path_13" d="M15.05 0a15.05 15.05 0 0 0 0 30.1 15.466 15.466 0 0 0 2.37-.2c-.01-.17-.03-.33-.03-.5A12.014 12.014 0 0 1 29.4 17.39c.17 0 .33.02.5.03a15.36 15.36 0 0 0 .2-2.37A15.052 15.052 0 0 0 15.05 0zm-3.59 18.75a1.911 1.911 0 0 1-.13.86.851.851 0 0 1-.79.38L9.29 20a.821.821 0 0 1-.8-.38 1.963 1.963 0 0 1-.13-.87v-7.47H7.22a1.156 1.156 0 0 1-.67-.12.438.438 0 0 1-.16-.36v-.89a.369.369 0 0 1 .18-.37 2.167 2.167 0 0 1 .42-.1 2.888 2.888 0 0 0 .81-.26 1.155 1.155 0 0 0 .57-.54 4.019 4.019 0 0 0 .25-.72.863.863 0 0 1 .9-.7h1.02a1.124 1.124 0 0 1 .72.2c.13.11.2.37.2.79v10.54zm7.92 0a1.912 1.912 0 0 1-.13.86.851.851 0 0 1-.79.38l-1.25.01a.821.821 0 0 1-.8-.38 1.963 1.963 0 0 1-.13-.87v-7.47h-1.13a1.156 1.156 0 0 1-.67-.12.438.438 0 0 1-.16-.36v-.89a.369.369 0 0 1 .18-.37 2.166 2.166 0 0 1 .42-.1 2.941 2.941 0 0 0 .82-.26 1.155 1.155 0 0 0 .57-.54c.05-.11.13-.35.25-.73a.863.863 0 0 1 .9-.7h1.02a1.124 1.124 0 0 1 .72.2c.13.11.2.37.2.79v10.55z" class="cls-1" data-name="Path 13" transform="translate(65 193)"/>
        <path id="Path_14" d="M29.4 18.79A10.605 10.605 0 1 0 40 29.4a10.6 10.6 0 0 0-10.6-10.61zm2.91 13.61c0 .58-.26.87-.79.87h-4.41c-.41 0-.62-.32-.62-.97v-1.72a.417.417 0 0 1 .48-.47h1.41c.32 0 .47.13.47.39v1.73h2.41v-2.86h-4.14q-.54 0-.54-.57v-3.34c0-.65.2-.98.61-.98h4.35a.524.524 0 0 1 .59.59v.9a.524.524 0 0 1-.59.59h-2.59v1.75h2.63c.48 0 .73.28.73.83v3.26z" class="cls-1" data-name="Path 14" transform="translate(65 193)"/>
    </g>
</svg>
