<svg xmlns="http://www.w3.org/2000/svg" width="40.004" height="40" viewBox="0 0 40.004 40">
    <defs>
        <style>
            .cls-1{fill:#f5b546}
        </style>
    </defs>
    <g id="icon_index_pk10" transform="translate(-212 -159)">
        <g id="Group_2" data-name="Group 2" transform="translate(212 159)">
            <path id="Path_21" d="M3.32 9.24a1.687 1.687 0 1 0-3.27.83l7.46 28.662A1.7 1.7 0 0 0 9.15 40a2.008 2.008 0 0 0 .42-.05 1.69 1.69 0 0 0 1.22-2.05zm0 0" class="cls-1" data-name="Path 21" transform="translate(.002 -.002)"/>
            <path id="Path_22" d="M39.962 21.471q-2.685-9.93-5.38-19.871A1.8 1.8 0 0 0 32.761.04C22.671-.69 16.041 9.35 5.96 8.62c-.8-.1-1.31.32-1.11 1.03q2.685 9.93 5.38 19.871a2 2 0 0 0 1.82 1.56c10.091.73 16.711-9.32 26.8-8.59.79.11 1.3-.3 1.11-1.02zM32.041 2.54c.49 1.83.99 3.65 1.49 5.48a18.293 18.293 0 0 0-5.98 1.24c-.49-1.83-.99-3.65-1.49-5.48a18.347 18.347 0 0 1 5.98-1.24zM11.25 23.031c-.56-2.08-1.13-4.15-1.69-6.23a17.879 17.879 0 0 0 6.28-1.37c-.5-1.83-.99-3.65-1.49-5.48A60.71 60.71 0 0 0 20.2 6.84c.5 1.83.99 3.65 1.49 5.48a60.57 60.57 0 0 1-5.85 3.11c.56 2.08 1.13 4.15 1.69 6.23a18.1 18.1 0 0 1-6.28 1.37zm7.79 4.19c-.5-1.85-1-3.71-1.51-5.56a59.512 59.512 0 0 0 5.8-3.08c.5 1.85 1 3.71 1.51 5.56a57.418 57.418 0 0 1-5.8 3.08zm4.34-8.67c-.56-2.08-1.12-4.15-1.69-6.23a53.431 53.431 0 0 1 5.86-3.06c.56 2.08 1.13 4.15 1.69 6.23a55.223 55.223 0 0 0-5.86 3.06zm7.4 2.49c-.5-1.85-1-3.71-1.51-5.56a18.1 18.1 0 0 1 5.94-1.23c.5 1.85 1 3.71 1.51 5.56a18.307 18.307 0 0 0-5.94 1.23zm0 0" class="cls-1" data-name="Path 22" transform="translate(.003 -.002)"/>
        </g>
    </g>
</svg>
