<svg xmlns="http://www.w3.org/2000/svg" width="20" height="20" viewBox="0 0 20 20">
    <defs>
        <style>
            .cls-1{fill:#fff;stroke:#707070}.cls-2{clip-path:url(#clip-path)}
        </style>
        <clipPath id="clip-path">
            <path id="Rectangle_1618" d="M0 0h20v20H0z" class="cls-1" data-name="Rectangle 1618" transform="translate(208 76)"/>
        </clipPath>
    </defs>
    <g id="Mask_Group_70" class="cls-2" data-name="Mask Group 70" transform="translate(-208 -76)">
        <path id="qr-code_2_" d="M0 3.75V.781A.781.781 0 0 1 .781 0H3.75a.781.781 0 0 1 0 1.563H1.563V3.75A.781.781 0 0 1 0 3.75zM19.219 0H16.25a.781.781 0 0 0 0 1.563h2.188V3.75a.781.781 0 0 0 1.562 0V.781A.781.781 0 0 0 19.219 0zM3.75 18.438H1.563V16.25a.781.781 0 0 0-1.563 0v2.969A.781.781 0 0 0 .781 20H3.75a.781.781 0 0 0 0-1.562zm15.469-2.969a.781.781 0 0 0-.781.781v2.188H16.25a.781.781 0 0 0 0 1.563h2.969a.781.781 0 0 0 .781-.782V16.25a.781.781 0 0 0-.781-.781zM9.316 3.848v4.687a.781.781 0 0 1-.781.781H3.848a.781.781 0 0 1-.781-.781V3.848a.781.781 0 0 1 .781-.781h4.687a.781.781 0 0 1 .781.781zm-1.562.781H4.629v3.125h3.125zm8.789 4.688h-4.688a.781.781 0 0 1-.781-.781V3.848a.781.781 0 0 1 .781-.781h4.688a.781.781 0 0 1 .781.781v4.687a.781.781 0 0 1-.781.781zm-.781-4.687h-3.125v3.124h3.125zm-6.446 7.225v4.688a.781.781 0 0 1-.781.781H3.848a.781.781 0 0 1-.781-.781v-4.688a.781.781 0 0 1 .781-.781h4.687a.781.781 0 0 1 .781.781zm-1.562.781H4.629v3.125h3.125zm7.783 3.682h-2.676a.781.781 0 0 1-.781-.781v-2.676a.781.781 0 0 1 .781-.781h2.676a.781.781 0 0 1 .781.781v2.676a.781.781 0 0 1-.781.781zm-.781-2.676h-1.113v1.113h1.113zm0 0" data-name="qr-code (2)" transform="translate(208 76)"/>
    </g>
</svg>
