<svg xmlns="http://www.w3.org/2000/svg" width="20" height="20" viewBox="0 0 20 20">
    <defs>
        <style>
            .cls-1{fill:#fff;stroke:#707070}.cls-2{clip-path:url(#clip-path)}
        </style>
        <clipPath id="clip-path">
            <path id="Rectangle_1615" d="M0 0h20v20H0z" class="cls-1" data-name="Rectangle 1615" transform="translate(118 76)"/>
        </clipPath>
    </defs>
    <g id="Mask_Group_72" class="cls-2" data-name="Mask Group 72" transform="translate(-118 -76)">
        <g id="gear" transform="translate(118 76)">
            <path id="Path_481" d="M18.548 7.446l-.975-.165a8.181 8.181 0 0 0-.293-.709l.574-.8a1.74 1.74 0 0 0-.189-2.253l-1.172-1.176a1.742 1.742 0 0 0-2.249-.189l-.807.574a8.038 8.038 0 0 0-.757-.312l-.161-.956A1.745 1.745 0 0 0 10.792 0H9.137a1.744 1.744 0 0 0-1.726 1.459l-.17.993q-.359.131-.707.3l-.792-.57a1.748 1.748 0 0 0-2.256.188L2.311 3.538a1.745 1.745 0 0 0-.189 2.253l.584.82c-.108.231-.2.47-.29.713l-.956.161A1.745 1.745 0 0 0 0 9.211v1.656a1.745 1.745 0 0 0 1.459 1.726l.993.169c.087.24.187.476.3.707l-.568.79a1.74 1.74 0 0 0 .189 2.253l1.172 1.172a1.742 1.742 0 0 0 2.249.189l.82-.584c.215.1.439.192.668.274l.163.975A1.745 1.745 0 0 0 9.168 20h1.66a1.745 1.745 0 0 0 1.726-1.459l.165-.975c.242-.087.479-.185.709-.293l.8.573a1.748 1.748 0 0 0 2.255-.187l1.172-1.172a1.745 1.745 0 0 0 .189-2.253l-.575-.807c.111-.236.21-.473.294-.708l.974-.162A1.745 1.745 0 0 0 20 10.828V9.175a1.728 1.728 0 0 0-1.452-1.73zm.28 3.382a.577.577 0 0 1-.482.571l-1.292.215a.632.632 0 0 0-.5.439 6.851 6.851 0 0 1-.468 1.129.631.631 0 0 0 .046.661l.761 1.069a.577.577 0 0 1-.063.744l-1.172 1.172a.576.576 0 0 1-.744.063l-1.064-.761a.631.631 0 0 0-.664-.046 6.9 6.9 0 0 1-1.131.468.632.632 0 0 0-.436.5l-.219 1.293a.577.577 0 0 1-.571.483H9.168a.577.577 0 0 1-.571-.482l-.215-1.292a.632.632 0 0 0-.435-.5 6.859 6.859 0 0 1-1.095-.45.632.632 0 0 0-.66.046l-1.084.771a.554.554 0 0 1-.33.106.566.566 0 0 1-.408-.171L3.2 15.682a.572.572 0 0 1-.062-.74l.757-1.053a.631.631 0 0 0 .045-.67 6.7 6.7 0 0 1-.474-1.125.633.633 0 0 0-.5-.434l-1.31-.223a.577.577 0 0 1-.482-.571V9.211a.577.577 0 0 1 .483-.571l1.276-.215a.631.631 0 0 0 .5-.441 6.755 6.755 0 0 1 .46-1.132.632.632 0 0 0-.046-.66l-.77-1.08a.576.576 0 0 1 .062-.744L4.315 3.2a.561.561 0 0 1 .4-.167.568.568 0 0 1 .334.106l1.057.761a.63.63 0 0 0 .669.045 6.7 6.7 0 0 1 1.124-.474.633.633 0 0 0 .434-.5l.223-1.31a.577.577 0 0 1 .571-.482h1.656a.577.577 0 0 1 .571.483l.215 1.276a.631.631 0 0 0 .441.5 6.82 6.82 0 0 1 1.173.483.632.632 0 0 0 .662-.046l1.071-.763A.553.553 0 0 1 15.257 3a.566.566 0 0 1 .408.171l1.174 1.174a.572.572 0 0 1 .061.741l-.762 1.066a.632.632 0 0 0-.046.663 6.9 6.9 0 0 1 .468 1.131.632.632 0 0 0 .5.436l1.292.219a.562.562 0 0 1 .475.562zm0 0" data-name="Path 481"/>
            <path id="Path_482" d="M10 6.111A3.889 3.889 0 1 0 13.889 10 3.893 3.893 0 0 0 10 6.111zm0 6.605A2.717 2.717 0 1 1 12.717 10 2.72 2.72 0 0 1 10 12.717zm0 0" data-name="Path 482"/>
        </g>
    </g>
</svg>
