<svg xmlns="http://www.w3.org/2000/svg" width="20" height="20" viewBox="0 0 20 20">
    <defs>
        <style>
            .cls-1{fill:#fff;stroke:#707070}.cls-2{clip-path:url(#clip-path)}
        </style>
        <clipPath id="clip-path">
            <path id="Rectangle_1617" d="M0 0h20v20H0z" class="cls-1" data-name="Rectangle 1617" transform="translate(178 76)"/>
        </clipPath>
    </defs>
    <g id="Mask_Group_71" class="cls-2" data-name="Mask Group 71" transform="translate(-178 -76)">
        <g id="chain-links" transform="translate(178 76)">
            <g id="Group_276" data-name="Group 276">
                <g id="Layer_5_91_">
                    <g id="Group_275" data-name="Group 275">
                        <path id="Path_478" d="M12.466 5.774l-.666-.322a.448.448 0 0 0-.6.206l-3.872 7.971a.448.448 0 0 0 .207.6l.661.322a.448.448 0 0 0 .6-.206l3.879-7.971a.448.448 0 0 0-.209-.6z" data-name="Path 478"/>
                        <path id="Path_479" d="M8.531 8.459c.08.119.314.215.4.029L9.562 7.2a1.468 1.468 0 0 0 0-.8 1.338 1.338 0 0 1 .085-.818l1.41-2.882a2.245 2.245 0 0 1 2.843-.723l.033.017.034.016A2.245 2.245 0 0 1 15.14 4.7l-1.43 2.882a1.337 1.337 0 0 1-.6.567 1.469 1.469 0 0 0-.63.49c-.132.269-.446.9-.637 1.283-.092.185.127.312.27.3a3.746 3.746 0 0 0 3.165-1.86l1.43-2.878A3.989 3.989 0 0 0 14.752.437l-.04-.019-.04-.018a3.989 3.989 0 0 0-5.194 1.527l-1.406 2.89a3.748 3.748 0 0 0 .459 3.642z" data-name="Path 479"/>
                        <path id="Path_480" d="M11.469 11.541c-.08-.119-.314-.215-.4-.029l-.627 1.287a1.468 1.468 0 0 0 0 .8 1.337 1.337 0 0 1-.085.818L8.943 17.3a2.245 2.245 0 0 1-2.848.718l-.033-.017-.034-.016A2.245 2.245 0 0 1 4.86 15.3l1.43-2.878a1.338 1.338 0 0 1 .6-.567 1.469 1.469 0 0 0 .63-.49c.132-.269.446-.9.637-1.283.092-.185-.127-.312-.27-.3a3.746 3.746 0 0 0-3.165 1.86l-1.43 2.878a3.989 3.989 0 0 0 1.96 5.047l.04.019.04.02a3.989 3.989 0 0 0 5.194-1.529l1.406-2.89a3.747 3.747 0 0 0-.463-3.646z" data-name="Path 480"/>
                    </g>
                </g>
            </g>
        </g>
    </g>
</svg>
